<svg width="34" height="35" viewBox="0 0 34 35" fill="none" xmlns="http://www.w3.org/2000/svg">
<path d="M16.4531 15.8715C16.4531 15.3537 16.8729 14.934 17.3906 14.934H32.4844C33.0021 14.934 33.4219 15.3537 33.4219 15.8715V32.9808C33.4219 33.4986 33.0021 33.9183 32.4844 33.9183H29.4521C29.0286 33.9183 28.6576 33.6343 28.5471 33.2254L28.2288 32.0478C28.0387 31.3444 27.1435 31.1094 26.5736 31.5634C24.2338 33.4271 21.1322 34.5277 17.2969 34.5277C7.45313 34.5277 0 27.2152 0 17.5121C0 7.85583 7.45313 0.543335 17.2969 0.543335C22.8844 0.543335 27.7286 2.8971 30.8606 6.75196C31.1965 7.16537 31.0825 7.77148 30.6375 8.0642L23.417 12.8135C23.006 13.0838 22.4608 12.9842 22.1106 12.6388C20.9012 11.4461 19.2187 10.7621 17.2969 10.7621C13.3594 10.7621 10.5 13.5746 10.5 17.5121C10.5 21.7308 13.3594 24.684 17.2969 24.684C19.4434 24.684 21.1531 24.1379 22.3217 22.9832C22.8255 22.4854 22.3936 21.7308 21.6854 21.7308H17.3906C16.8729 21.7308 16.4531 21.3111 16.4531 20.7933V15.8715Z" fill="#FF2533"/>
</svg>
