<svg width="34" height="35" viewBox="0 0 34 35" fill="none" xmlns="http://www.w3.org/2000/svg">
<path d="M16.4531 15.4808C16.4531 14.9631 16.8729 14.5433 17.3906 14.5433H32.4844C33.0021 14.5433 33.4219 14.9631 33.4219 15.4808V32.5902C33.4219 33.108 33.0021 33.5277 32.4844 33.5277H29.4521C29.0286 33.5277 28.6576 33.2437 28.5471 32.8348L28.2288 31.6572C28.0387 30.9538 27.1435 30.7188 26.5736 31.1728C24.2338 33.0365 21.1322 34.1371 17.2969 34.1371C7.45313 34.1371 0 26.8246 0 17.1215C0 7.46521 7.45313 0.15271 17.2969 0.15271C22.8844 0.15271 27.7286 2.50648 30.8606 6.36134C31.1965 6.77475 31.0825 7.38086 30.6375 7.67357L23.417 12.4229C23.006 12.6932 22.4608 12.5936 22.1106 12.2482C20.9012 11.0555 19.2187 10.3715 17.2969 10.3715C13.3594 10.3715 10.5 13.184 10.5 17.1215C10.5 21.3402 13.3594 24.2933 17.2969 24.2933C19.4434 24.2933 21.1531 23.7472 22.3217 22.5925C22.8255 22.0948 22.3936 21.3402 21.6854 21.3402H17.3906C16.8729 21.3402 16.4531 20.9205 16.4531 20.4027V15.4808Z" fill="#FF2533"/>
</svg>
