<svg width="31" height="34" viewBox="0 0 31 34" fill="none" xmlns="http://www.w3.org/2000/svg">
<path d="M20.4453 1.27771C20.4453 0.759943 20.865 0.34021 21.3828 0.34021H30.0078C30.5256 0.34021 30.9453 0.759943 30.9453 1.27771V32.2152C30.9453 32.733 30.5256 33.1527 30.0078 33.1527H21.3828C20.865 33.1527 20.4453 32.733 20.4453 32.2152V22.2777C20.4453 21.7599 20.0256 21.3402 19.5078 21.3402H11.9609C11.4432 21.3402 11.0234 21.7599 11.0234 22.2777V32.2152C11.0234 32.733 10.6037 33.1527 10.0859 33.1527H1.41406C0.896296 33.1527 0.476562 32.733 0.476562 32.2152V1.27771C0.476562 0.759941 0.896296 0.34021 1.41406 0.34021H10.0859C10.6037 0.34021 11.0234 0.759943 11.0234 1.27771V10.8871C11.0234 11.4049 11.4432 11.8246 11.9609 11.8246H19.5078C20.0256 11.8246 20.4453 11.4049 20.4453 10.8871V1.27771Z" fill="#FF2533"/>
</svg>
