<svg width="27" height="34" viewBox="0 0 27 34" fill="none" xmlns="http://www.w3.org/2000/svg">
<path d="M25.7109 0.52771C26.2287 0.52771 26.6484 0.947443 26.6484 1.46521V9.24646C26.6484 9.76423 26.2287 10.184 25.7109 10.184H19.8984C19.3807 10.184 18.9609 10.6037 18.9609 11.1215V32.4027C18.9609 32.9205 18.5412 33.3402 18.0234 33.3402H9.35156C8.8338 33.3402 8.41406 32.9205 8.41406 32.4027V11.1215C8.41406 10.6037 7.99433 10.184 7.47656 10.184H1.71094C1.19317 10.184 0.773438 9.76423 0.773438 9.24646V1.46521C0.773438 0.947443 1.19317 0.52771 1.71094 0.52771H25.7109Z" fill="#FF2533"/>
</svg>
